<?xml version="1.0" encoding="UTF-8"?>
<svg width="1035px" height="253px" viewBox="0 0 1035 253" version="1.1" xmlns="http://www.w3.org/2000/svg" xmlns:xlink="http://www.w3.org/1999/xlink">
    <title>1</title>
    <g id="Page-1" stroke="none" stroke-width="1" fill="none" fill-rule="evenodd">
        <g id="1" transform="translate(-0.001789, 0.993290)" fill="#FFFFFF" fill-rule="nonzero">
            <path d="M16.0917895,54.9367097 C12.9384561,51.6033763 11.3651228,46.150043 11.3717684,38.5767097 C11.3784561,31.0033763 12.9517895,25.5233763 16.0917895,22.1367097 C19.2317895,18.7567097 23.7884561,17.0667097 29.7617895,17.0667097 C35.7351228,17.0667097 40.3084561,18.7567097 43.4817895,22.1367097 C46.6551228,25.5167097 48.2384561,30.9967097 48.2318104,38.5767097 C48.2251228,46.1567097 46.6417895,51.610043 43.4817895,54.9367097 C40.3151228,58.270043 35.7417895,59.9367097 29.7617895,59.9367097 C23.7817895,59.9367097 19.2251228,58.270043 16.0917895,54.9367097 M36.6617895,48.7067097 C38.1417895,46.7067097 38.8817895,43.330043 38.8817895,38.5767097 C38.8817895,33.8233763 38.1417895,30.420043 36.6617895,28.3667097 C35.1817895,26.3667097 32.8817895,25.3667097 29.7617895,25.3667097 C26.6417895,25.3667097 24.3617895,26.3667097 22.9117895,28.3667097 C21.4617895,30.3667097 20.7217895,33.7967097 20.7217895,38.5767097 C20.7217895,43.3567097 21.4517895,46.7267097 22.9117895,48.7067097 C24.3717895,50.6867097 26.6417895,51.7067097 29.7617895,51.7067097 C32.8817895,51.7067097 35.1817895,50.7067097 36.6617895,48.7067097" id="Shape"></path>
            <path d="M58.9417895,57.1567097 C57.4617895,55.3167097 56.7217895,52.4167097 56.7217895,48.4767097 L56.7217895,2.26670968 C56.7217895,0.756709677 57.4917895,0.00670967687 59.0617895,0.00670967687 L65.9117895,0.00670967687 L65.9117895,48.3967097 C65.9117895,50.7867097 66.7117895,51.9767097 68.3317895,51.9767097 C69.4873763,51.9997666 70.6408772,51.8686105 71.7617895,51.5867097 L71.7617895,57.0067097 C71.775605,57.5202724 71.624944,58.0248116 71.3317895,58.4467097 C71.0485043,58.8341625 70.6492226,59.1213651 70.1917895,59.2667097 C69.0221795,59.7125182 67.7833624,59.9494505 66.5317895,59.9667097 C62.9517895,59.9667097 60.4217895,59.0433763 58.9417895,57.1967097" id="Path"></path>
            <path d="M80.7617895,57.1567097 C79.2717895,55.3167097 78.5317895,52.4167097 78.5317895,48.4767097 L78.5317895,2.26670968 C78.5317895,0.756709677 79.3117895,0.00670967687 80.8717895,0.00670967687 L87.7317895,0.00670967687 L87.7317895,48.3967097 C87.7317895,50.7867097 88.5317895,51.9767097 90.1517895,51.9767097 C91.304076,51.9997116 92.4542656,51.8685496 93.5717895,51.5867097 L93.5717895,57.0067097 C93.5892379,57.5192549 93.4420463,58.0239118 93.1517895,58.4467097 C92.8660915,58.8317222 92.4676765,59.1183014 92.0117895,59.2667097 C90.8416733,59.7107322 89.6031739,59.9476037 88.3517895,59.9667097 C84.7617895,59.9667097 82.2417895,59.0467097 80.7617895,57.1967097" id="Path"></path>
            <path d="M102.181789,54.3567097 C99.3484561,50.6433763 97.9351228,45.310043 97.941766,38.3567097 C97.941766,31.690043 99.3184561,26.480043 102.071789,22.7267097 C104.825123,18.9733763 109.448456,17.090043 115.941789,17.0767097 C121.941789,17.0767097 126.198456,18.7667097 128.711789,22.1467097 C131.266957,25.7029172 132.58437,29.9994429 132.461789,34.3767097 L132.461789,38.5867097 C132.461789,41.080043 131.161789,42.3267097 128.561789,42.3267097 L107.001789,42.3267097 C107.001789,45.4967097 107.901789,47.8967097 109.721789,49.5367097 C111.810069,51.2676007 114.473184,52.1493559 117.181789,52.0067097 C119.650982,52.0187943 122.11245,51.73 124.511789,51.1467097 C126.693905,50.6347096 128.810806,49.8765169 130.821789,48.8867097 L130.821789,55.0067097 C130.765248,56.0321362 130.172387,56.9518314 129.261789,57.4267097 C127.561642,58.3408153 125.713138,58.9468267 123.801789,59.2167097 C121.362327,59.6801416 118.884881,59.9144946 116.401789,59.9167097 C109.735123,59.9167097 104.995123,58.060043 102.181789,54.3467097 M123.571789,34.0467097 C123.571789,30.9867097 122.861789,28.7067097 121.431789,27.2267097 C119.833619,25.6748505 117.655166,24.868823 115.431789,25.0067097 C113.103299,24.8486537 110.831555,25.7706277 109.271789,27.5067097 C107.871789,29.1667097 107.145123,31.580043 107.091789,34.7467097 L123.531789,34.7467097 L123.571789,34.0467097 Z" id="Shape"></path>
            <path d="M141.881789,3.66670968 C141.930289,2.67046177 142.240733,1.70463572 142.781789,0.866709677 C143.267461,0.269904934 144.014533,-0.0513360851 144.781789,0.00670967687 L152.001789,0.00670967687 C151.221789,1.88004301 150.831789,4.84004301 150.831789,8.88670968 L150.831789,20.1067097 C152.341326,19.1753278 153.964728,18.442612 155.661789,17.9267097 C157.477035,17.3558245 159.36889,17.0658076 161.271789,17.0667097 C165.631789,17.0667097 169.048456,18.170043 171.521789,20.3767097 C173.995123,22.5833763 175.228456,26.000043 175.221789,30.6267097 L175.221789,57.1167097 C175.3181,57.6619433 175.146052,58.2202022 174.759532,58.6166332 C174.373011,59.0130642 173.819286,59.1991884 173.271789,59.1167097 L166.001789,59.1167097 L166.001789,32.8867097 C166.14157,30.9006483 165.681711,28.9183761 164.681789,27.1967097 C163.661087,25.8866528 162.046287,25.1827654 160.391789,25.3267097 C158.763081,25.3213724 157.14466,25.5849148 155.601789,26.1067097 C153.932356,26.6950288 152.327364,27.4522902 150.811789,28.3667097 L150.811789,57.0067097 C150.811789,58.3567097 150.031789,59.0067097 148.471789,59.0067097 L141.621789,59.0067097 L141.621789,9.35670968 C141.591942,7.45723368 141.668729,5.55757954 141.851789,3.66670968" id="Path"></path>
            <path d="M207.001789,57.3167097 C205.081789,55.5767097 204.121789,52.6467097 204.121789,48.5467097 L204.121789,25.7967097 L198.201789,25.7967097 L198.201789,19.8767097 C198.201789,18.4167097 198.961789,17.6967097 200.461789,17.6967097 L204.121789,17.6967097 L204.121789,9.82670968 C204.07021,9.20972043 204.252226,8.59585999 204.631789,8.10670968 C205.092515,7.70124337 205.701102,7.50562619 206.311789,7.56670968 L213.311789,7.56670968 L213.311789,17.6967097 L218.371789,17.6967097 C219.580485,17.710284 220.789005,17.6568687 221.991789,17.5367097 C222.922219,17.44242 223.832749,17.2063565 224.691789,16.8367097 L224.691789,22.6767097 C224.743827,23.8524666 223.955797,24.9003783 222.811789,25.1767097 C221.217184,25.6367777 219.560706,25.8459459 217.901789,25.7967097 L213.311789,25.7967097 L213.311789,46.5267097 C213.182267,47.9348345 213.534858,49.3451985 214.311789,50.5267097 C214.981789,51.3567097 216.261789,51.7767097 218.131789,51.7767097 C219.359168,51.7984498 220.585552,51.6945758 221.791789,51.4667097 C222.781646,51.2417019 223.748969,50.9270708 224.681789,50.5267097 L224.681789,56.5267097 C224.690608,57.5767998 224.031872,58.5167043 223.041789,58.8667097 C220.473747,59.6825574 217.784652,60.0512509 215.091789,59.9567097 C211.611789,59.9567097 208.908456,59.0867097 206.981789,57.3467097" id="Path"></path>
            <path d="M240.741789,58.5267097 C240.087207,57.9659697 239.599425,57.2360259 239.331789,56.4167097 L227.881789,19.7967097 C227.791656,19.5733428 227.737647,19.337054 227.721789,19.0967097 C227.709887,18.7296664 227.838667,18.3719439 228.081789,18.0967097 C228.336959,17.8191824 228.706102,17.6752165 229.081789,17.7067097 L236.721789,17.7067097 L246.531789,51.8367097 L255.391789,21.0067097 C255.663163,20.014903 256.284911,19.1551141 257.141789,18.5867097 C257.980766,18.0228016 258.970964,17.7264393 259.981789,17.7367097 L266.841789,17.7367097 C265.468467,19.553071 264.450621,21.612511 263.841789,23.8067097 L253.591789,56.4167097 C253.351288,57.2676505 252.847121,58.0203993 252.151789,58.5667097 C251.366687,58.9517408 250.494336,59.1241422 249.621789,59.0667097 L243.311789,59.0667097 C242.420996,59.1379489 241.528582,58.9504376 240.741789,58.5267097" id="Path"></path>
            <path d="M293.491789,121.82671 C304.871789,123.09671 342.111789,122.57671 359.011789,120.82671 C358.499727,123.309263 358.278238,125.842963 358.351789,128.37671 C342.731789,126.70671 313.081789,126.98671 301.011789,129.23671 C291.451789,131.01671 288.191789,135.59671 288.301789,139.43671 C288.421789,143.43671 291.181789,147.22671 302.501789,148.72671 C311.231789,149.88671 338.101789,150.12671 354.581789,147.72671 C353.838921,145.464543 353.745378,143.039377 354.311789,140.72671 C354.881789,138.96671 355.921789,138.29671 357.161789,138.42671 C358.401789,138.55671 359.081789,139.60671 359.331789,141.20671 C360.541789,149.04671 365.951789,152.26671 371.941789,152.26671 C384.471789,152.26671 395.311789,140.79671 389.031789,118.89671 C386.361789,109.58671 378.751789,103.80671 366.491789,101.13671 C347.721789,97.0367097 308.881789,96.7367097 292.611789,101.13671 C283.701789,103.52671 280.191789,107.76671 280.501789,112.63671 C280.791789,117.27671 284.091789,120.90671 293.501789,121.95671" id="Path"></path>
            <path d="M123.631789,225.72671 C120.221789,222.83671 114.871789,222.15671 110.761789,221.58671 C109.451789,221.40671 108.451789,220.70671 108.391789,219.75671 C108.311789,218.57671 109.171789,217.57671 110.661789,217.00671 C113.581789,215.88671 117.341789,215.92671 121.931789,216.64671 C122.474223,214.841107 122.587227,212.933731 122.261789,211.07671 C121.261789,203.69671 111.471789,201.36671 99.2617895,200.17671 C79.8289859,198.537918 60.300242,198.367435 40.8417895,199.66671 C26.9417895,200.73671 19.2617895,202.26671 17.3817895,210.97671 C15.8417895,218.08671 16.2217895,230.73671 18.7917895,237.58671 C21.9817895,246.11671 28.3017895,248.06671 39.1317895,249.50671 C58.3117895,252.07671 85.1817895,252.39671 108.361789,249.50671 C118.781789,248.21671 123.651789,244.95671 126.091789,240.10671 C128.451789,235.40671 127.751789,229.19671 123.651789,225.72671 M50.2617895,228.54671 C51.1217895,227.10671 51.0517895,220.83671 50.2617895,219.22671 C56.8617895,220.77671 80.4717895,221.32671 88.5117895,219.93671 C87.9117895,221.35671 88.0017895,227.33671 88.8317895,228.82671 C82.2217895,227.46671 56.9317895,227.19671 50.2817895,228.54671" id="Shape"></path>
            <path d="M148.261789,185.56671 C152.531789,189.29671 158.751789,189.96671 167.891789,185.91671 C177.891789,181.50671 191.431789,169.14671 198.701789,158.08671 C205.851789,168.33671 218.561789,180.58671 231.771789,185.54671 C241.441789,189.18671 251.301789,190.43671 256.501789,184.61671 C261.561789,178.95671 260.691789,169.87671 252.741789,161.86671 C247.511789,156.59671 239.011789,151.31671 229.881789,147.73671 C222.431799,144.782854 214.600449,142.900771 206.621789,142.14671 C204.851789,141.98671 203.621789,141.47671 203.621789,140.23671 C203.621789,138.62671 204.981789,137.65671 206.861789,137.05671 C210.001789,136.05671 215.361789,135.92671 220.961789,136.82671 C230.641789,130.66671 230.631789,118.20671 224.901789,112.37671 C220.181789,107.58671 212.691789,105.32671 201.381789,110.87671 C183.461789,119.67671 155.261789,150.31671 148.241789,164.69671 C143.081789,175.26671 144.011789,181.82671 148.241789,185.56671" id="Path"></path>
            <path d="M386.781789,155.50671 C363.851789,153.21671 309.471789,153.21671 286.541789,155.50671 C273.201789,156.84671 269.611789,162.22671 269.851789,167.10671 C270.081789,171.74671 273.621789,175.01671 282.321789,176.34671 C287.981789,177.20671 302.241789,177.75671 318.731789,177.97671 C318.493101,179.670818 318.554028,181.393694 318.911789,183.06671 C318.911789,183.06671 305.141789,182.44671 293.861789,184.38671 C284.381789,186.02671 281.451789,189.89671 281.711789,194.32671 C281.951789,198.40671 284.641789,201.32671 293.391789,202.42671 C306.721789,204.14671 341.841789,203.42671 355.901789,201.72671 C355.491524,203.941201 355.491524,206.212218 355.901789,208.42671 C336.001789,207.80671 316.951789,208.15671 304.971789,209.22671 C293.181789,210.27671 282.411789,215.78671 282.101789,230.30671 C281.781789,245.51671 293.331789,250.53671 310.251789,251.24671 C318.391789,251.58671 372.071789,251.79671 381.401789,251.06671 C392.401789,250.21671 395.551789,246.13671 395.551789,240.99671 C395.551789,235.64671 391.461789,231.57671 382.411789,230.44671 C366.781789,228.44671 337.411789,228.79671 317.591789,230.90671 C318.25583,228.490459 318.303962,225.946348 317.731789,223.50671 C331.981789,224.18671 357.241789,224.15671 365.641789,223.77671 C372.271789,223.46671 383.371789,222.85671 388.891789,214.46671 C391.841789,209.97671 392.281789,201.72671 390.031789,195.81671 C387.661789,189.59671 383.541789,185.20671 373.161789,183.81671 C365.051789,182.70671 353.311789,183.08671 353.311789,183.08671 C353.65778,181.414465 353.698435,179.693426 353.431789,178.00671 C370.431789,177.79671 385.211789,177.24671 391.001789,176.36671 C399.701789,175.03671 403.241789,171.76671 403.471789,167.12671 C403.711789,162.24671 400.121789,156.86671 386.781789,155.52671" id="Path"></path>
            <path d="M251.261789,200.76671 C230.261789,198.46671 174.001789,198.46671 152.971789,200.76671 C142.071789,201.96671 135.891789,205.66671 135.281789,212.63671 C134.601789,220.24671 139.541789,225.21671 149.541789,227.81671 C175.791789,234.62671 228.451789,234.62671 254.701789,227.81671 C264.701789,225.21671 269.631789,220.24671 268.961789,212.63671 C268.341789,205.63671 262.161789,201.96671 251.261789,200.76671" id="Path"></path>
            <path d="M119.001789,168.60671 C113.071789,167.54671 99.8817895,166.87671 84.7017895,166.60671 C84.8614571,165.095458 84.7702275,163.568207 84.4317895,162.08671 C103.791789,161.27671 111.091789,154.03671 111.181789,144.28671 C111.249958,140.272901 110.383815,136.298228 108.651789,132.67671 C118.571789,132.32671 124.651789,128.82671 125.651789,122.79671 C126.651789,116.76671 123.181789,110.23671 110.521789,108.39671 C101.526927,107.225922 92.4622416,106.674623 83.3917895,106.74671 C82.6317895,98.9367097 76.2617895,94.2167097 66.2217895,94.2167097 C57.6517895,94.2167097 50.9617895,97.4867097 49.7217895,106.59671 C49.3817895,109.07671 49.4017895,112.77671 49.3417895,114.97671 C49.2917895,116.84671 48.9417895,117.74671 47.8717895,118.07671 C46.8017895,118.40671 45.5117895,117.92671 44.5317895,115.99671 C43.4117895,113.78671 42.9017895,110.88671 42.8117895,106.74671 C42.8117895,106.74671 29.8117895,106.65671 22.1017895,107.96671 C12.3317895,109.62671 7.89178947,114.90671 8.01178947,120.90671 C8.15178947,127.61671 14.0717895,132.56671 25.0117895,132.68671 C23.2825807,136.38078 22.4467293,140.429863 22.5717895,144.50671 C23.0017895,154.36671 32.6017895,162.00671 50.8617895,162.05671 C50.5442992,163.532439 50.4934982,165.053081 50.7117895,166.54671 C34.8217895,166.82671 20.8517895,167.54671 14.7117895,168.60671 C4.51178947,170.42671 0.53178947,173.79671 0.0517894699,178.80671 C-0.39821053,183.64671 2.00178947,188.00671 10.5017895,190.66671 C22.9317895,194.54671 110.741789,194.54671 123.171789,190.66671 C131.691789,188.00671 134.071789,183.66671 133.611789,178.80671 C133.141789,173.80671 129.161789,170.42671 118.971789,168.60671 M67.5717895,132.83671 C75.2517895,132.83671 79.4317895,135.12671 79.4317895,139.11671 C79.4317895,143.10671 75.2517895,145.38671 67.5717895,145.38671 C60.2217895,145.38671 55.5717895,143.79671 55.5717895,139.11671 C55.5717895,134.43671 60.2517895,132.83671 67.5717895,132.83671" id="Shape"></path>
            <polygon id="Path" points="550.041789 128.77671 546.871789 125.60671 505.821789 166.64671 464.781789 125.60671 461.601789 128.77671 502.651789 169.82671 461.601789 210.86671 464.781789 214.04671 505.821789 172.99671 546.871789 214.04671 550.041789 210.86671 509.001789 169.82671"></polygon>
            <path d="M733.671789,11.4467097 C733.58196,9.374379 734.761089,7.45559133 736.650473,6.59952319 C738.539857,5.74345505 740.759932,6.12208414 742.258763,7.55600515 C743.757594,8.98992616 744.234077,11.1910751 743.462441,13.1164845 C742.690805,15.041894 740.826065,16.3047636 738.751789,16.3067097 C737.4313,16.3443123 736.150761,15.8514645 735.196215,14.9382569 C734.241669,14.0250494 733.692647,12.7675698 733.671789,11.4467097 M734.591789,22.3667097 L743.121789,22.3667097 L743.121789,59.2167097 L734.591789,59.2167097 L734.591789,22.3667097 Z" id="Shape"></path>
            <rect id="Rectangle" x="751.001789" y="34.0567097" width="16.91" height="7.05"></rect>
            <path d="M773.841789,43.5767097 L782.841789,43.5767097 C783.471789,48.6467097 785.521789,52.8767097 794.051789,52.8767097 C799.611789,52.8767097 803.561789,49.7767097 803.561789,45.1267097 C803.561789,40.4767097 801.231789,38.7167097 793.061789,37.3767097 C781.011789,35.7567097 775.301789,32.0867097 775.301789,22.6467097 C775.301789,14.4067097 782.301789,8.20670968 792.851789,8.20670968 C803.701789,8.20670968 810.181789,13.1367097 811.171789,22.7867097 L802.571789,22.7867097 C801.661789,17.5067097 798.631789,15.2467097 792.851789,15.2467097 C787.071789,15.2467097 784.201789,18.0067097 784.201789,21.8767097 C784.201789,25.9567097 785.891789,28.0067097 794.631789,29.2767097 C806.471789,30.8967097 812.631789,34.2767097 812.631789,44.3567097 C812.631789,53.0867097 805.231789,59.9267097 794.101789,59.9267097 C780.351789,59.9267097 774.581789,53.0867097 773.871789,43.5767097" id="Path"></path>
            <path d="M818.461789,41.2467097 L818.461789,40.6867097 C818.461789,28.9867097 826.781789,21.5867097 837.071789,21.5867097 C845.241789,21.5867097 852.921789,25.2567097 853.911789,35.4067097 L845.661789,35.4067097 C844.961789,30.4667097 841.721789,28.4067097 837.211789,28.4067097 C831.361789,28.4067097 827.211789,32.9167097 827.211789,40.5267097 L827.211789,41.0867097 C827.211789,49.0867097 831.161789,53.3567097 837.431789,53.3567097 C841.941789,53.3567097 845.821789,50.6767097 846.311789,45.4567097 L854.131789,45.4567097 C853.501789,53.9167097 847.131789,59.9067097 837.131789,59.9067097 C826.561789,59.9067097 818.521789,52.9967097 818.521789,41.2267097" id="Path"></path>
            <path d="M861.001789,22.3667097 L869.521789,22.3667097 L869.521789,29.2767097 C871.851789,24.6167097 875.301789,21.8767097 881.521789,21.8067097 L881.521789,29.8067097 C874.051789,29.8767097 869.521789,32.2667097 869.521789,40.0967097 L869.521789,59.2167097 L861.001789,59.2167097 L861.001789,22.3667097 Z" id="Path"></path>
            <path d="M885.431789,41.1767097 L885.431789,40.6167097 C885.431789,29.2067097 893.251789,21.6167097 903.751789,21.6167097 C912.911789,21.6167097 921.161789,27.0467097 921.161789,40.2267097 L921.161789,42.6867097 L894.161789,42.6867097 C894.441789,49.6867097 897.961789,53.6167097 904.301789,53.6167097 C909.451789,53.6167097 912.131789,51.6167097 912.761789,47.9767097 L921.001789,47.9767097 C919.811789,55.7267097 913.531789,59.9767097 904.091789,59.9767097 C893.241789,59.9767097 885.421789,52.8567097 885.421789,41.2267097 M912.701789,37.0067097 C912.281789,30.6567097 909.031789,27.8467097 903.701789,27.8467097 C898.371789,27.8467097 895.101789,31.2967097 894.261789,37.0067097 L912.701789,37.0067097 Z" id="Shape"></path>
            <path d="M926.701789,49.0067097 C926.701789,40.4067097 935.021789,37.3067097 945.591789,37.3067097 L950.171789,37.3067097 L950.171789,35.4067097 C950.171789,30.4667097 948.481789,28.0067097 943.481789,28.0067097 C939.041789,28.0067097 936.851789,30.1167097 936.431789,33.7867097 L928.191789,33.7867097 C928.891789,25.1867097 935.721789,21.5867097 943.971789,21.5867097 C952.221789,21.5867097 958.701789,25.0067097 958.701789,35.0067097 L958.701789,59.2267097 L950.311789,59.2267097 L950.311789,54.7167097 C947.921789,57.8867097 944.671789,59.9267097 939.041789,59.9267097 C932.271789,59.9267097 926.701789,56.6867097 926.701789,49.0067097 M950.171789,46.3267097 L950.171789,42.6567097 L945.801789,42.6567097 C939.321789,42.6567097 935.161789,44.1367097 935.161789,48.6567097 C935.161789,51.7667097 936.851789,53.8067097 941.081789,53.8067097 C946.301789,53.8067097 950.171789,51.0567097 950.171789,46.3367097" id="Shape"></path>
            <path d="M967.361789,22.3667097 L975.881789,22.3667097 L975.881789,28.0067097 C978.115526,23.9305735 982.445721,21.4506585 987.091789,21.5867097 C991.881789,21.5867097 995.691789,23.6367097 997.521789,28.2167097 C1000.25718,23.9992385 1004.9758,21.4924724 1010.00179,21.5867097 C1016.77179,21.5867097 1022.26179,25.7467097 1022.26179,35.8967097 L1022.26179,59.2167097 L1013.74179,59.2167097 L1013.74179,36.4567097 C1013.74179,31.0367097 1011.41179,28.7067097 1007.18179,28.7067097 C1002.95179,28.7067097 999.081789,31.5267097 999.081789,37.1667097 L999.081789,59.2167097 L990.551789,59.2167097 L990.551789,36.4567097 C990.551789,31.0367097 988.161789,28.7067097 984.001789,28.7067097 C979.841789,28.7067097 975.891789,31.5267097 975.891789,37.1667097 L975.891789,59.2167097 L967.371789,59.2167097 L967.361789,22.3667097 Z" id="Path"></path>
            <path d="M979.291789,165.65671 C968.151789,162.83671 951.681789,164.07671 940.661789,166.28671 C941.177937,163.034174 941.144133,159.718047 940.561789,156.47671 C949.980221,157.672292 959.514714,157.628586 968.921789,156.34671 C971.131789,155.97671 976.731789,155.13671 978.461789,154.15671 C977.191789,151.63671 976.851789,147.33671 977.571789,143.23671 C978.221789,139.47671 980.491789,133.39671 984.981789,130.16671 C985.144413,126.973909 984.807008,123.775308 983.981789,120.68671 C981.981789,113.33671 976.531789,107.98671 967.591789,105.23671 C956.591789,101.83671 932.741789,101.58671 921.591789,106.05671 C913.021789,109.48671 909.831789,114.71671 910.871789,120.90671 C911.911789,127.09671 917.801789,129.96671 924.281789,131.06671 C932.861789,132.51671 947.611789,131.50671 954.801789,130.17671 C954.276295,133.247837 954.232436,136.382081 954.671789,139.46671 C946.391789,138.38671 933.261789,138.18671 925.421789,140.28671 C918.801789,142.05671 913.641789,144.98671 910.511789,152.77671 C907.506646,160.645412 907.809589,169.394708 911.351789,177.03671 C915.481789,185.89671 924.881789,188.90671 935.151789,190.63671 C946.351789,192.53671 968.011789,192.16671 977.741789,189.23671 C985.321789,186.95671 989.491789,183.53671 990.001789,177.47671 C990.481789,171.69671 986.361789,167.47671 979.331789,165.65671" id="Path"></path>
            <path d="M892.081789,225.72671 C888.661789,222.83671 883.311789,222.15671 879.201789,221.58671 C877.901789,221.40671 876.901789,220.70671 876.831789,219.75671 C876.751789,218.57671 877.611789,217.57671 879.111789,217.00671 C882.021789,215.88671 885.791789,215.92671 890.381789,216.64671 C890.91726,214.839684 891.02679,212.93317 890.701789,211.07671 C889.701789,203.69671 879.911789,201.36671 867.701789,200.17671 C848.268984,198.537956 828.740243,198.367473 809.281789,199.66671 C795.371789,200.73671 787.701789,202.26671 785.811789,210.97671 C784.271789,218.08671 784.661789,230.73671 787.221789,237.58671 C790.411789,246.11671 796.731789,248.06671 807.571789,249.50671 C826.741789,252.07671 853.571789,252.39671 876.791789,249.50671 C887.211789,248.21671 892.081789,244.95671 894.521789,240.10671 C896.881789,235.40671 896.181789,229.19671 892.091789,225.72671 M818.691789,228.54671 C819.551789,227.10671 819.491789,220.83671 818.691789,219.22671 C825.291789,220.77671 848.901789,221.32671 856.941789,219.93671 C856.351789,221.35671 856.431789,227.33671 857.261789,228.82671 C850.661789,227.46671 825.361789,227.19671 818.711789,228.54671" id="Shape"></path>
            <path d="M887.411789,168.60671 C881.481789,167.54671 868.291789,166.87671 853.111789,166.60671 C853.271457,165.095458 853.180227,163.568207 852.841789,162.08671 C872.211789,161.27671 879.511789,154.03671 879.591789,144.28671 C879.665115,140.272392 878.798716,136.296545 877.061789,132.67671 C886.991789,132.32671 893.061789,128.82671 894.061789,122.79671 C895.061789,116.76671 891.591789,110.23671 878.931789,108.39671 C869.936927,107.225922 860.872242,106.674623 851.801789,106.74671 C851.051789,98.9367097 844.681789,94.2167097 834.631789,94.2167097 C826.071789,94.2167097 819.371789,97.4867097 818.131789,106.59671 C817.801789,109.07671 817.811789,112.77671 817.751789,114.97671 C817.751789,116.84671 817.351789,117.74671 816.281789,118.07671 C815.211789,118.40671 813.921789,117.92671 812.941789,115.99671 C811.821789,113.78671 811.311789,110.88671 811.221789,106.74671 C811.221789,106.74671 798.221789,106.65671 790.511789,107.96671 C780.751789,109.62671 776.301789,114.90671 776.431789,120.90671 C776.571789,127.61671 782.481789,132.56671 793.431789,132.68671 C791.699467,136.368792 790.866604,140.409721 791.001789,144.47671 C791.441789,154.36671 801.001789,161.96671 819.321789,162.05671 C818.995944,163.531205 818.941724,165.052761 819.161789,166.54671 C803.271789,166.82671 789.311789,167.54671 783.161789,168.60671 C773.001789,170.42671 769.001789,173.79671 768.501789,178.80671 C768.041789,183.64671 770.421789,188.00671 778.941789,190.66671 C791.371789,194.54671 879.181789,194.54671 891.611789,190.66671 C900.141789,188.00671 902.511789,183.66671 902.061789,178.80671 C901.581789,173.80671 897.611789,170.42671 887.411789,168.60671 M836.001789,132.83671 C843.691789,132.83671 847.861789,135.12671 847.861789,139.11671 C847.861789,143.10671 843.691789,145.38671 836.001789,145.38671 C828.651789,145.38671 824.001789,143.79671 824.001789,139.11671 C824.001789,134.43671 828.681789,132.83671 836.001789,132.83671" id="Shape"></path>
            <path d="M1032.53179,115.11671 C1030.53179,103.21671 1023.81179,98.8967097 1016.13179,98.7767097 C1008.45179,98.8967097 1001.70179,103.21671 999.741789,115.11671 C999.035457,118.549919 998.653775,122.04198 998.601789,125.54671 C1003.34798,125.93514 1007.70783,128.314889 1010.60179,132.09671 C1013.05179,135.42671 1010.77179,137.54671 1008.44179,136.17671 C1005.21179,134.26671 999.991789,130.99671 992.641789,132.96671 C985.641789,134.83671 980.061789,141.71671 982.201789,151.08671 C983.190544,155.054765 985.756515,158.447113 989.305704,160.478457 C992.854893,162.509802 997.07958,163.004022 1001.00179,161.84671 C1000.00179,170.52671 1000.24179,185.21671 1001.70179,191.18671 C1003.98179,200.58671 1008.32179,205.53671 1016.15179,205.40671 C1023.99179,205.53671 1028.32179,200.58671 1030.61179,191.18671 C1034.84179,173.79671 1036.00179,135.97671 1032.55179,115.11671" id="Path"></path>
            <path d="M1016.89179,216.76671 C1004.07179,213.36671 991.711789,213.84671 983.061789,214.93671 C975.03292,215.811387 967.166343,217.807485 959.691789,220.86671 C958.361789,221.44671 956.951789,221.64671 956.131789,220.86671 C955.311789,220.08671 955.381789,218.80671 956.271789,217.57671 C958.391848,214.711798 961.274964,212.500948 964.591789,211.19671 C963.151789,200.97671 957.021789,196.19671 949.431789,195.14671 C942.971789,194.23671 934.431789,195.58671 929.661789,203.79671 C925.421789,211.11671 925.461789,220.16671 927.871789,229.56671 C931.321789,242.99671 939.871789,246.56671 949.441789,247.81671 C962.441789,249.51671 1003.21179,249.01671 1016.63179,246.98671 C1029.78179,244.98671 1034.46179,239.71671 1034.55179,232.71671 C1034.65179,225.29671 1028.10179,219.71671 1016.89179,216.71671" id="Path"></path>
            <path d="M748.121789,123.49671 C746.121789,109.49671 739.221789,105.49671 731.371789,105.29671 C723.531789,105.44671 716.641789,109.49671 714.631789,123.49671 C711.121789,148.05671 712.301789,195.18671 716.631789,215.65671 C718.971789,226.72671 723.401789,232.54671 731.391789,232.39671 C739.391789,232.54671 743.821789,226.72671 746.161789,215.65671 C750.471789,195.18671 751.651789,148.05671 748.161789,123.49671" id="Path"></path>
            <path d="M672.611789,117.62671 C667.411789,109.25671 661.931789,105.29671 653.151789,105.29671 C644.371789,105.29671 638.891789,109.29671 633.681789,117.62671 C617.871789,143.02671 603.681789,194.74671 603.621789,213.36671 C603.621789,223.29671 606.831789,230.07671 614.851789,231.99671 C622.871789,233.91671 630.061789,228.81671 633.851789,219.14671 C635.480641,214.702246 636.777533,210.143068 637.731789,205.50671 C646.651789,208.13671 660.401789,208.21671 667.851789,205.70671 C671.211789,204.57671 672.701789,203.39671 674.241789,202.87671 C676.451789,202.12671 678.541789,204.19671 676.591789,207.33671 C674.971088,209.669066 672.875178,211.632065 670.441789,213.09671 C670.970013,215.140226 671.638259,217.144963 672.441789,219.09671 C676.211789,228.76671 683.441789,233.86671 691.441789,231.94671 C699.441789,230.02671 702.691789,223.24671 702.671881,213.31671 C702.671881,194.69671 688.421789,142.97671 672.611789,117.57671 M653.151789,179.20671 C649.137298,179.202302 645.127446,179.47965 641.151789,180.03671 C644.421789,170.64671 649.971789,152.48671 653.151789,139.11671 C656.311789,152.48671 661.861789,170.64671 665.151789,180.03671 C661.176218,179.478829 657.166309,179.201477 653.151789,179.20671" id="Shape"></path>
        </g>
    </g>
</svg>