<svg id="레이어_1" data-name="레이어 1" xmlns="http://www.w3.org/2000/svg" xmlns:xlink="http://www.w3.org/1999/xlink" viewBox="0 0 1034.56 251.55"><defs><style>.cls-1{fill:none;}.cls-2{clip-path:url(#clip-path);}.cls-3{fill:#b2b4b6;}.cls-4{fill:#06c5c1;}</style><clipPath id="clip-path" transform="translate(0 0)"><rect class="cls-1" width="1034.56" height="251.55"/></clipPath></defs><title>Vector Smart Object</title><g class="cls-2"><path class="cls-3" d="M16.09,54.93q-4.73-5-4.72-16.36t4.72-16.44q4.71-5.07,13.67-5.07t13.72,5.07q4.76,5.07,4.75,16.44T43.48,54.93q-4.75,5-13.72,5t-13.67-5M36.66,48.7q2.22-3,2.22-10.13T36.66,28.36c-1.48-2-3.78-3-6.9-3s-5.4,1-6.85,3-2.19,5.43-2.19,10.21.73,8.15,2.19,10.13,3.73,3,6.85,3,5.42-1,6.9-3" transform="translate(0 0)"/><path class="cls-3" d="M58.94,57.15c-1.48-1.84-2.22-4.74-2.22-8.68V2.26C56.72.75,57.49,0,59.06,0h6.85V48.39c0,2.39.8,3.58,2.42,3.58a13,13,0,0,0,3.43-.39V57a2.41,2.41,0,0,1-.43,1.44,2.26,2.26,0,0,1-1.14.82,10.69,10.69,0,0,1-3.66.7q-5.37,0-7.59-2.77" transform="translate(0 0)"/><path class="cls-3" d="M80.76,57.15c-1.49-1.84-2.23-4.74-2.23-8.68V2.26C78.53.75,79.31,0,80.87,0h6.86V48.39c0,2.39.8,3.58,2.42,3.58a12.93,12.93,0,0,0,3.42-.39V57a2.4,2.4,0,0,1-.42,1.44,2.31,2.31,0,0,1-1.14.82,10.78,10.78,0,0,1-3.66.7c-3.59,0-6.11-.92-7.59-2.77" transform="translate(0 0)"/><path class="cls-3" d="M102.18,54.35q-4.25-5.57-4.24-16,0-10,4.13-15.63t13.87-5.65q9,0,12.77,5.07a20,20,0,0,1,3.75,12.23v4.21q0,3.74-3.9,3.74H107c0,3.17.9,5.57,2.72,7.21A10.8,10.8,0,0,0,117.18,52a30.4,30.4,0,0,0,7.33-.86,29.6,29.6,0,0,0,6.31-2.26V55a2.91,2.91,0,0,1-1.56,2.42,16.36,16.36,0,0,1-5.46,1.79,39.84,39.84,0,0,1-7.4.7q-10,0-14.22-5.57m21.39-20.3c0-3.06-.71-5.34-2.14-6.82a7.91,7.91,0,0,0-6-2.22,7.59,7.59,0,0,0-6.16,2.5q-2.1,2.49-2.18,7.24h16.44Z" transform="translate(0 0)"/><path class="cls-3" d="M141.88,3.66a5.63,5.63,0,0,1,.9-2.8,2.35,2.35,0,0,1,2-.86H152q-1.17,2.81-1.17,8.88V20.1a20.62,20.62,0,0,1,4.83-2.18,18.67,18.67,0,0,1,5.61-.86q6.54,0,10.25,3.31t3.7,10.25V57.11a1.72,1.72,0,0,1-1.95,2H166V32.88a9.94,9.94,0,0,0-1.32-5.69,4.9,4.9,0,0,0-4.29-1.87,14.8,14.8,0,0,0-4.79.78,26,26,0,0,0-4.79,2.26V57c0,1.35-.78,2-2.34,2h-6.85V9.35a50.77,50.77,0,0,1,.23-5.69" transform="translate(0 0)"/><path class="cls-3" d="M207,57.31c-1.92-1.74-2.88-4.67-2.88-8.77V25.79h-5.92V19.87c0-1.46.76-2.18,2.26-2.18h3.66V9.82a2.47,2.47,0,0,1,.51-1.72,2.21,2.21,0,0,1,1.68-.54h7V17.69h5.06a32.72,32.72,0,0,0,3.62-.16,9.17,9.17,0,0,0,2.7-.7v5.84a2.46,2.46,0,0,1-1.88,2.5,16,16,0,0,1-4.91.62h-4.59V46.52a6.24,6.24,0,0,0,1,4c.67.83,1.95,1.25,3.82,1.25a18,18,0,0,0,3.66-.31,16.73,16.73,0,0,0,2.89-.94v6a2.46,2.46,0,0,1-1.64,2.34,23.53,23.53,0,0,1-7.95,1.09q-5.22,0-8.11-2.61" transform="translate(0 0)"/><path class="cls-3" d="M240.74,58.52a4.7,4.7,0,0,1-1.41-2.11L227.88,19.79a2.27,2.27,0,0,1-.16-.7,1.44,1.44,0,0,1,.36-1,1.22,1.22,0,0,1,1-.39h7.64l9.81,34.13L255.39,21a4.25,4.25,0,0,1,1.75-2.42,5,5,0,0,1,2.84-.85h6.86a18.08,18.08,0,0,0-3,6.07L253.59,56.41a4.18,4.18,0,0,1-1.44,2.15,5,5,0,0,1-2.53.5h-6.31a4.64,4.64,0,0,1-2.57-.54" transform="translate(0 0)"/><path class="cls-4" d="M293.49,121.82c11.38,1.27,48.62.75,65.52-1.06a32.82,32.82,0,0,0-.66,7.56c-15.62-1.67-45.27-1.39-57.34.86-9.56,1.78-12.82,6.36-12.71,10.2.12,4,2.88,7.79,14.2,9.29,8.73,1.16,35.6,1.4,52.08-1a12.73,12.73,0,0,1-.27-7c.57-1.76,1.61-2.43,2.85-2.3s1.92,1.18,2.17,2.77c1.21,7.85,6.62,11.07,12.61,11.07,12.53,0,23.37-11.48,17.09-33.37-2.67-9.31-10.28-15.09-22.54-17.76-18.77-4.1-57.61-4.4-73.88,0-8.91,2.39-12.42,6.62-12.11,11.5.29,4.64,3.59,8.27,13,9.32" transform="translate(0 0)"/><path class="cls-4" d="M123.63,225.72c-3.41-2.89-8.76-3.57-12.87-4.14-1.31-.18-2.31-.88-2.37-1.83-.08-1.18.78-2.18,2.27-2.75,2.92-1.12,6.68-1.08,11.27-.36a12.1,12.1,0,0,0,.33-5.57c-1-7.38-10.79-9.71-23-10.9a386.46,386.46,0,0,0-58.42-.51c-13.9,1.07-21.58,2.6-23.46,11.31-1.54,7.11-1.16,19.76,1.41,26.61,3.19,8.53,9.51,10.48,20.34,11.92,19.18,2.57,46.05,2.89,69.23,0,10.42-1.29,15.29-4.55,17.73-9.4,2.36-4.7,1.66-10.91-2.44-14.38m-73.39,2.82c.86-1.44.79-7.71,0-9.32,6.6,1.55,30.21,2.1,38.25.71-.6,1.42-.51,7.4.32,8.89-6.61-1.36-31.9-1.63-38.55-.28" transform="translate(0 0)"/><path class="cls-4" d="M148.26,185.56c4.27,3.73,10.49,4.4,19.63.35,10-4.41,23.54-16.77,30.81-27.82,7.15,10.24,19.86,22.49,33.07,27.45,9.67,3.64,19.53,4.89,24.73-.93,5.06-5.66,4.19-14.74-3.76-22.75-5.23-5.27-13.73-10.55-22.86-14.13a84.74,84.74,0,0,0-23.26-5.59c-1.77-.16-3-.67-3-1.91,0-1.61,1.36-2.58,3.24-3.18,3.14-1,8.5-1.13,14.1-.23,9.68-6.16,9.67-18.62,3.94-24.45-4.72-4.79-12.21-7.05-23.52-1.5-17.92,8.8-46.12,39.44-53.14,53.82-5.16,10.57-4.23,17.13,0,20.87" transform="translate(0 0)"/><path class="cls-4" d="M386.78,155.5c-22.93-2.29-77.31-2.29-100.24,0-13.34,1.34-16.93,6.72-16.69,11.6.23,4.64,3.77,7.91,12.47,9.24,5.66.86,19.92,1.41,36.41,1.63a14.6,14.6,0,0,0,.18,5.09s-13.77-.62-25.05,1.32c-9.48,1.64-12.41,5.51-12.15,9.94.24,4.08,2.93,7,11.68,8.1,13.33,1.72,48.45,1,62.51-.7a18.39,18.39,0,0,0,0,6.7c-19.9-.62-38.95-.27-50.93.8-11.79,1.05-22.56,6.56-22.87,21.08-.32,15.21,11.23,20.23,28.15,20.94,8.14.34,61.82.55,71.15-.18,11-.85,14.15-4.93,14.15-10.07,0-5.35-4.09-9.42-13.14-10.55-15.63-2-45-1.65-64.82.46a15,15,0,0,0,.14-7.4c14.25.68,39.51.65,47.91.27,6.63-.31,17.73-.92,23.25-9.31,2.95-4.49,3.39-12.74,1.14-18.65-2.37-6.22-6.49-10.61-16.87-12-8.11-1.11-19.85-.73-19.85-.73a14.16,14.16,0,0,0,.12-5.08c17-.21,31.78-.76,37.57-1.64,8.7-1.33,12.24-4.6,12.47-9.24.24-4.88-3.35-10.26-16.69-11.6" transform="translate(0 0)"/><path class="cls-4" d="M251.26,200.76c-21-2.3-77.26-2.3-98.29,0-10.9,1.2-17.08,4.9-17.69,11.87-.68,7.61,4.26,12.58,14.26,15.18,26.25,6.81,78.91,6.81,105.16,0,10-2.6,14.93-7.57,14.26-15.18-.62-7-6.8-10.67-17.7-11.87" transform="translate(0 0)"/><path class="cls-4" d="M119,168.6c-5.93-1.06-19.12-1.73-34.3-2a13.75,13.75,0,0,0-.27-4.52c19.36-.82,26.66-8.06,26.75-17.81a25.92,25.92,0,0,0-2.53-11.61c9.92-.35,16-3.85,17-9.88s-2.47-12.56-15.13-14.4a198,198,0,0,0-27.13-1.65c-.76-7.81-7.13-12.53-17.17-12.53-8.57,0-15.26,3.28-16.5,12.38-.34,2.48-.32,6.19-.38,8.38-.05,1.87-.4,2.77-1.47,3.1s-2.36-.15-3.34-2.08c-1.12-2.21-1.63-5.11-1.72-9.25,0,0-13-.09-20.71,1.23-9.77,1.65-14.21,6.93-14.09,12.94.14,6.7,6.06,11.65,17,11.77a26,26,0,0,0-2.44,11.82C23,154.36,32.6,162,50.86,162.06a12.58,12.58,0,0,0-.15,4.48c-15.89.28-29.86,1-36,2.06C4.51,170.42.53,173.79.05,178.8-.4,183.64,2,188,10.5,190.66c12.43,3.88,100.24,3.88,112.67,0,8.52-2.66,10.9-7,10.44-11.86-.47-5-4.45-8.38-14.64-10.2m-51.4-35.77c7.68,0,11.86,2.29,11.86,6.28s-4.18,6.27-11.86,6.27c-7.35,0-12-1.59-12-6.27s4.68-6.28,12-6.28" transform="translate(0 0)"/><polygon class="cls-3" points="550.04 128.77 546.87 125.6 505.82 166.64 464.78 125.6 461.6 128.77 502.65 169.82 461.6 210.86 464.78 214.04 505.82 172.99 546.87 214.04 550.04 210.86 509 169.82 550.04 128.77"/><path class="cls-3" d="M733.67,11.44a5.08,5.08,0,1,1,5.08,4.86,4.94,4.94,0,0,1-5.08-4.86m.92,10.92h8.53V59.21h-8.53Z" transform="translate(0 0)"/><rect class="cls-3" x="751" y="34.05" width="16.91" height="7.05"/><path class="cls-3" d="M773.84,43.57h9c.63,5.07,2.68,9.3,11.21,9.3,5.56,0,9.51-3.1,9.51-7.75s-2.33-6.41-10.5-7.75c-12.05-1.62-17.76-5.29-17.76-14.73,0-8.24,7-14.44,17.55-14.44,10.85,0,17.33,4.93,18.32,14.58h-8.6c-.91-5.28-3.94-7.54-9.72-7.54S784.2,18,784.2,21.87c0,4.08,1.69,6.13,10.43,7.4,11.84,1.62,18,5,18,15.08,0,8.73-7.4,15.57-18.53,15.57-13.75,0-19.52-6.84-20.23-16.35" transform="translate(0 0)"/><path class="cls-3" d="M818.46,41.25v-.57c0-11.7,8.32-19.1,18.61-19.1,8.17,0,15.85,3.67,16.84,13.82h-8.25c-.7-4.94-3.94-7-8.45-7-5.85,0-10,4.51-10,12.12v.57c0,8,3.95,12.26,10.22,12.26,4.51,0,8.39-2.68,8.88-7.9h7.82c-.63,8.46-7,14.45-17,14.45-10.57,0-18.61-6.91-18.61-18.67" transform="translate(0 0)"/><path class="cls-3" d="M861,22.36h8.52v6.91c2.33-4.66,5.78-7.4,12-7.47v8c-7.47.07-12,2.46-12,10.29V59.21H861Z" transform="translate(0 0)"/><path class="cls-3" d="M885.43,41.17v-.56c0-11.42,7.82-19,18.32-19,9.16,0,17.41,5.43,17.41,18.61v2.46h-27c.28,7,3.8,10.93,10.14,10.93,5.15,0,7.83-2,8.46-5.64H921c-1.19,7.75-7.47,12-16.91,12-10.85,0-18.67-7.12-18.67-18.75M912.7,37c-.42-6.35-3.67-9.16-9-9.16s-8.6,3.45-9.44,9.16Z" transform="translate(0 0)"/><path class="cls-3" d="M926.7,49c0-8.6,8.32-11.7,18.89-11.7h4.58V35.4c0-4.94-1.69-7.4-6.69-7.4-4.44,0-6.63,2.11-7.05,5.78h-8.24c.7-8.6,7.53-12.2,15.78-12.2S958.7,25,958.7,35V59.22h-8.39V54.71c-2.39,3.17-5.64,5.21-11.27,5.21-6.77,0-12.34-3.24-12.34-10.92m23.47-2.68V42.66H945.8c-6.48,0-10.64,1.47-10.64,6,0,3.11,1.69,5.15,5.92,5.15,5.22,0,9.09-2.75,9.09-7.47" transform="translate(0 0)"/><path class="cls-3" d="M967.36,22.36h8.52V28a12.37,12.37,0,0,1,11.21-6.42c4.79,0,8.6,2.05,10.43,6.63A14.55,14.55,0,0,1,1010,21.58c6.77,0,12.26,4.16,12.26,14.31V59.21h-8.52V36.45c0-5.42-2.33-7.75-6.56-7.75s-8.1,2.82-8.1,8.46V59.21h-8.53V36.45c0-5.42-2.39-7.75-6.55-7.75s-8.11,2.82-8.11,8.46V59.21h-8.52Z" transform="translate(0 0)"/><path class="cls-4" d="M979.29,165.65c-11.14-2.82-27.61-1.58-38.63.63a29.41,29.41,0,0,0-.1-9.81,108.68,108.68,0,0,0,28.36-.13c2.21-.37,7.81-1.21,9.54-2.19-1.27-2.52-1.61-6.82-.89-10.92.65-3.76,2.92-9.84,7.41-13.07a30.68,30.68,0,0,0-1-9.48c-2-7.35-7.45-12.7-16.39-15.45-11-3.4-34.85-3.65-46,.82-8.57,3.43-11.76,8.66-10.72,14.85s6.93,9.06,13.41,10.16c8.58,1.45,23.33.44,30.52-.89a30,30,0,0,0-.13,9.29c-8.28-1.08-21.41-1.28-29.25.82-6.62,1.77-11.78,4.71-14.91,12.49a31.21,31.21,0,0,0,.84,24.26c4.13,8.86,13.53,11.87,23.8,13.6,11.2,1.9,32.86,1.53,42.59-1.4,7.58-2.28,11.75-5.7,12.26-11.76.48-5.78-3.64-10-10.67-11.82" transform="translate(0 0)"/><path class="cls-4" d="M892.08,225.72c-3.42-2.89-8.77-3.57-12.88-4.14-1.3-.18-2.3-.88-2.37-1.83-.08-1.18.78-2.18,2.28-2.75,2.91-1.12,6.68-1.08,11.27-.36a12.2,12.2,0,0,0,.32-5.57c-1-7.38-10.79-9.71-23-10.9a386.47,386.47,0,0,0-58.42-.51c-13.91,1.07-21.58,2.6-23.47,11.31-1.54,7.11-1.15,19.76,1.41,26.61,3.19,8.53,9.51,10.48,20.35,11.92,19.17,2.57,46,2.89,69.22,0,10.42-1.29,15.29-4.55,17.73-9.4,2.36-4.7,1.66-10.91-2.43-14.38m-73.4,2.82c.86-1.44.8-7.71,0-9.32,6.6,1.55,30.21,2.1,38.25.71-.59,1.42-.51,7.4.32,8.89-6.6-1.36-31.9-1.63-38.55-.28" transform="translate(0 0)"/><path class="cls-4" d="M887.41,168.6c-5.93-1.06-19.12-1.73-34.3-2a13.75,13.75,0,0,0-.27-4.52c19.37-.82,26.67-8.06,26.75-17.81a25.79,25.79,0,0,0-2.53-11.61c9.93-.35,16-3.85,17-9.88s-2.47-12.56-15.13-14.4a198,198,0,0,0-27.13-1.65c-.75-7.81-7.12-12.53-17.17-12.53-8.56,0-15.26,3.28-16.5,12.38-.33,2.48-.32,6.19-.38,8.38,0,1.87-.4,2.77-1.47,3.1s-2.36-.15-3.34-2.08c-1.12-2.21-1.63-5.11-1.72-9.25,0,0-13-.09-20.71,1.23-9.76,1.65-14.21,6.93-14.08,12.94.14,6.7,6.05,11.65,17,11.77A25.72,25.72,0,0,0,791,144.47c.44,9.89,10,17.49,28.32,17.59a12.35,12.35,0,0,0-.16,4.48c-15.89.28-29.85,1-36,2.06C773,170.42,769,173.79,768.5,178.8c-.46,4.84,1.92,9.2,10.44,11.86,12.43,3.88,100.24,3.88,112.67,0,8.53-2.66,10.9-7,10.45-11.86-.48-5-4.45-8.38-14.65-10.2M836,132.83c7.69,0,11.86,2.29,11.86,6.28s-4.17,6.27-11.86,6.27c-7.35,0-12-1.59-12-6.27s4.68-6.28,12-6.28" transform="translate(0 0)"/><path class="cls-4" d="M1032.53,115.11c-2-11.9-8.72-16.22-16.4-16.34-7.68.12-14.43,4.44-16.39,16.34a55.87,55.87,0,0,0-1.14,10.43,16.84,16.84,0,0,1,12,6.55c2.45,3.33.17,5.45-2.16,4.08-3.23-1.91-8.45-5.18-15.8-3.21-7,1.87-12.58,8.75-10.44,18.12A15,15,0,0,0,1001,161.84c-1,8.68-.76,23.37.7,29.34,2.28,9.4,6.62,14.35,14.45,14.22,7.84.13,12.17-4.82,14.46-14.22,4.23-17.39,5.39-55.21,1.94-76.07" transform="translate(0 0)"/><path class="cls-4" d="M1016.89,216.76c-12.82-3.4-25.18-2.92-33.83-1.83a86.4,86.4,0,0,0-23.37,5.93c-1.33.58-2.74.78-3.56,0s-.75-2.06.14-3.29a19,19,0,0,1,8.32-6.38c-1.44-10.22-7.57-15-15.16-16.05-6.46-.91-15,.44-19.77,8.65-4.24,7.32-4.2,16.37-1.79,25.77,3.45,13.43,12,17,21.57,18.25,13,1.7,53.77,1.2,67.19-.83,13.15-2,17.83-7.27,17.92-14.27.1-7.42-6.45-13-17.66-16" transform="translate(0 0)"/><path class="cls-4" d="M748.12,123.49c-2-14-8.9-18-16.75-18.2-7.84.15-14.73,4.2-16.74,18.2-3.51,24.56-2.33,71.69,2,92.16,2.34,11.07,6.77,16.89,14.76,16.74,8,.15,12.43-5.67,14.77-16.74,4.31-20.47,5.49-67.6,2-92.16" transform="translate(0 0)"/><path class="cls-4" d="M672.61,117.62c-5.2-8.37-10.68-12.33-19.46-12.33s-14.26,4-19.47,12.33c-15.81,25.4-30,77.12-30.06,95.74,0,9.93,3.21,16.71,11.23,18.63s15.21-3.18,19-12.85a95.71,95.71,0,0,0,3.88-13.64c8.92,2.63,22.67,2.71,30.12.2,3.36-1.14,4.85-2.31,6.39-2.83,2.21-.75,4.3,1.32,2.35,4.46a20.13,20.13,0,0,1-6.15,5.76,46,46,0,0,0,2,6c3.77,9.67,11,14.77,19,12.85s11.25-8.7,11.23-18.63c0-18.62-14.25-70.34-30.06-95.74M653.15,179.2a85.8,85.8,0,0,0-12,.83c3.27-9.39,8.82-27.55,12-40.92,3.16,13.37,8.71,31.53,12,40.92a85.55,85.55,0,0,0-12-.83" transform="translate(0 0)"/></g></svg>