<svg xmlns="http://www.w3.org/2000/svg" xmlns:xlink="http://www.w3.org/1999/xlink" viewBox="0 0 36.22 32.98"><defs><style>.cls-1,.cls-4,.cls-6,.cls-7,.cls-8,.cls-9{fill:none;}.cls-2{clip-path:url(#clip-path);}.cls-3{fill:#ccc;}.cls-4,.cls-6,.cls-7{stroke:#1b1c1c;}.cls-4,.cls-6,.cls-7,.cls-8,.cls-9{stroke-linejoin:round;}.cls-4,.cls-6{stroke-width:3px;}.cls-5{fill:#fff;}.cls-6,.cls-7,.cls-8,.cls-9{stroke-linecap:round;}.cls-7{stroke-width:2px;}.cls-8{stroke:#fff;stroke-width:10px;}.cls-9{stroke:#f92b92;stroke-width:4.6px;}</style><clipPath id="clip-path"><rect class="cls-1" width="36.22" height="32.98"/></clipPath></defs><title>자산 1</title><g id="레이어_2" data-name="레이어 2"><g id="레이어_1-2" data-name="레이어 1"><g class="cls-2"><path class="cls-3" d="M5,24.46A3.51,3.51,0,0,0,1.5,28c0,.06,0,.11,0,.17A3.51,3.51,0,0,0,5,31.48H28.58v-7Z"/><path class="cls-4" d="M5,24.46A3.51,3.51,0,0,0,1.5,28c0,.06,0,.11,0,.17A3.51,3.51,0,0,0,5,31.48H28.58v-7Z"/><path class="cls-5" d="M5,24.46H28.58V1.5H5A3.51,3.51,0,0,0,1.52,4.66c0,.12,0,23.31,0,23.31A3.51,3.51,0,0,1,5,24.46"/><path class="cls-6" d="M5,24.46H28.58V1.5H5A3.51,3.51,0,0,0,1.52,4.66c0,.12,0,23.31,0,23.31A3.51,3.51,0,0,1,5,24.46Z"/><line class="cls-7" x1="7.5" y1="1.58" x2="7.5" y2="24"/><polyline class="cls-8" points="31.22 7.32 22.15 16.39 16.58 10.82"/><polyline class="cls-9" points="31.22 7.32 22.15 16.39 16.58 10.82"/></g></g></g></svg>